<?xml version="1.0" standalone="no"?>
<!DOCTYPE svg PUBLIC "-//W3C//DTD SVG 20010904//EN"
 "http://www.w3.org/TR/2001/REC-SVG-20010904/DTD/svg10.dtd">
<svg version="1.0" xmlns="http://www.w3.org/2000/svg"
 width="1159.000000pt" height="1024.000000pt" viewBox="0 0 1159.000000 1024.000000"
 preserveAspectRatio="xMidYMid meet">

<g transform="translate(0.000000,1024.000000) scale(0.100000,-0.100000)"
fill="#000000" stroke="none">
<path d="M930 10044 c-14 -2 -52 -9 -85 -15 -303 -54 -525 -301 -604 -669 -45
-213 -51 -423 -26 -820 74 -1152 203 -2473 275 -2831 58 -282 220 -622 411
-858 374 -466 929 -742 1669 -833 135 -17 680 -17 810 0 191 24 202 21 48 -12
-764 -168 -1312 -424 -1644 -768 -451 -467 -480 -1059 -83 -1675 271 -418 820
-921 1269 -1161 642 -344 1241 -258 1749 249 372 373 690 948 964 1744 81 236
97 275 112 275 15 0 27 -31 106 -257 369 -1066 801 -1732 1325 -2042 228 -134
506 -197 757 -171 434 46 849 270 1349 727 676 617 949 1233 792 1780 -70 245
-245 492 -484 683 -350 279 -905 503 -1558 631 -62 12 -111 23 -109 25 1 2 70
-6 152 -17 198 -26 589 -36 791 -20 845 70 1492 409 1880 987 131 195 260 499
304 713 71 354 204 1718 276 2846 34 540 3 817 -121 1070 -104 213 -251 337
-471 396 -104 29 -343 31 -480 6 -439 -82 -962 -345 -1443 -726 -398 -316
-886 -801 -1327 -1322 -640 -754 -1282 -1686 -1651 -2396 -47 -90 -87 -163
-89 -163 -2 0 -27 46 -55 102 -233 464 -642 1106 -1081 1697 -444 597 -809
1023 -1263 1476 -287 288 -416 405 -640 584 -495 396 -1028 668 -1464 746 -86
16 -314 28 -361 19z m2687 -6000 c-3 -3 -12 -4 -19 -1 -8 3 -5 6 6 6 11 1 17
-2 13 -5z"/>
</g>
</svg>
