<?xml version="1.0" standalone="no"?>
<!DOCTYPE svg PUBLIC "-//W3C//DTD SVG 20010904//EN"
 "http://www.w3.org/TR/2001/REC-SVG-20010904/DTD/svg10.dtd">
<svg version="1.0" xmlns="http://www.w3.org/2000/svg"
 width="425.000000pt" height="425.000000pt" viewBox="0 0 425.000000 425.000000"
 preserveAspectRatio="xMidYMid meet">

<g transform="translate(0.000000,425.000000) scale(0.100000,-0.100000)"
fill="#000000" stroke="none">
<path d="M1990 4244 c-670 -48 -1266 -395 -1636 -951 -169 -255 -281 -550
-330 -868 -23 -149 -23 -451 0 -600 105 -681 509 -1256 1106 -1573 315 -167
630 -245 995 -245 347 0 626 64 930 213 635 310 1063 898 1171 1605 31 205 22
505 -22 725 -130 641 -556 1192 -1149 1480 -215 105 -395 161 -625 194 -110
16 -346 26 -440 20z m-967 -819 c163 -66 338 -194 532 -389 201 -202 435 -503
550 -711 l21 -36 57 96 c155 258 409 568 620 756 124 110 309 235 414 280 58
24 98 33 155 37 69 4 84 2 132 -22 100 -49 132 -142 123 -356 -8 -169 -43
-546 -62 -665 -44 -279 -261 -458 -599 -497 l-100 -11 77 -22 c173 -50 315
-143 375 -244 25 -42 27 -55 27 -146 0 -95 -2 -104 -37 -175 -115 -232 -389
-466 -598 -511 -248 -53 -402 116 -541 594 l-43 149 -48 -149 c-51 -154 -134
-340 -187 -417 -46 -67 -122 -138 -178 -166 -69 -35 -177 -39 -256 -10 -235
88 -539 443 -578 675 -10 60 -10 78 5 129 38 129 208 235 456 283 44 9 42 9
-59 22 -197 24 -333 83 -442 192 -74 74 -129 174 -148 269 -12 62 -44 370 -62
599 -23 297 7 406 126 463 58 28 177 20 268 -17z"/>
</g>
</svg>
